<svg width="100" height="100" viewBox="0 0 100 100" fill="none" xmlns="http://www.w3.org/2000/svg">
<rect width="100" height="100" fill="white"/>
<path d="M17.4592 25.48L17.6 25.3392H36.8896C49.8432 25.3392 56.4373 25.48 56.672 25.7616C56.7659 25.9963 56.3435 28.8123 55.4048 34.2096C54.3723 39.7477 53.856 42.5403 53.856 42.5872C53.7152 42.8219 53.0816 42.9392 51.9552 42.9392C50.8288 42.9392 50.2187 42.7984 50.1248 42.5168C50.0309 42.3291 50.0779 41.6251 50.2656 40.4048C50.9696 36.4155 51.1573 33.7168 50.8288 32.3088C50.7819 31.7456 50.5003 31.2528 49.984 30.8304C49.5616 30.408 48.9515 30.056 48.1536 29.7744C47.168 29.4459 45.5957 29.2816 43.4368 29.2816C41.2309 29.2816 40.0341 29.4224 39.8464 29.704L30.1312 68.6352C30.5067 68.8699 32.3136 69.0107 35.552 69.0576C37.7109 69.0576 38.8843 69.2219 39.072 69.5504C39.1189 69.6912 39.0485 70.2309 38.8608 71.1696C38.6261 72.0613 38.4149 72.6011 38.2272 72.7888L38.016 73H36.7488C30.6475 72.7653 23.5136 72.7419 15.3472 72.9296C13.5168 72.9765 12.5077 72.8357 12.32 72.5072C12.2731 72.3664 12.3435 71.8267 12.5312 70.888C12.7659 69.9963 12.9771 69.4565 13.1648 69.2688L13.376 69.0576H15.4176C18.4683 69.0576 20.3691 68.9872 21.12 68.8464C21.6363 68.7056 21.9179 68.6352 21.9648 68.6352C22.1995 68.5413 22.3637 68.4005 22.4576 68.2128C22.7861 67.5088 24.4523 61.0555 27.456 48.8528C30.6944 35.8992 32.2901 29.4224 32.2432 29.4224C32.1024 29.3285 30.8587 29.2816 28.512 29.2816C26.8224 29.3285 25.7899 29.3989 25.4144 29.4928C24.288 29.6805 23.3259 29.9856 22.528 30.408C21.6832 30.8304 21.0027 31.2997 20.4864 31.816C19.3131 32.9893 17.9989 35.7819 16.544 40.1936C15.9808 41.7424 15.6992 42.5403 15.6992 42.5872C15.5115 42.8219 14.8779 42.9392 13.7984 42.9392C12.672 42.9392 12.0619 42.7984 11.968 42.5168C11.8741 42.3291 11.8272 42.2117 11.8272 42.1648L17.1776 25.832C17.1776 25.6912 17.2715 25.5739 17.4592 25.48ZM60.2498 25.128L60.4609 24.9168H61.517C66.3511 25.1515 72.3351 25.1749 79.469 24.9872C81.1586 24.9403 82.0972 25.0811 82.285 25.4096C82.3319 25.5504 82.2615 26.0901 82.0738 27.0288C81.7922 27.9675 81.6044 28.5072 81.5106 28.648L81.2994 28.8592H78.4834C75.4327 28.9061 73.6962 29.1173 73.2738 29.4928C73.133 29.5867 71.4434 36.1573 68.205 49.2048C64.9665 62.1584 63.3473 68.7056 63.3473 68.8464C63.3473 68.9403 63.4881 68.9872 63.7698 68.9872H71.2322C73.7196 68.7056 75.949 67.8608 77.9202 66.4528C78.9996 65.7019 79.8679 64.8571 80.525 63.9184C81.9799 61.9941 83.3644 59.0843 84.6786 55.1888C85.1479 53.9685 85.453 53.3115 85.5938 53.2176C85.7346 53.1237 86.2743 53.0768 87.213 53.0768C88.1516 53.0768 88.6679 53.1237 88.7618 53.2176C89.0434 53.3115 89.1842 53.5227 89.1842 53.8512L82.7074 72.648C82.6135 72.8357 81.933 72.9296 80.6658 72.9296C79.3047 72.9765 74.2594 73 65.5298 73H48.8449L48.5633 72.7888C48.4225 72.5541 48.3521 72.3664 48.3521 72.2256C48.3521 71.4747 48.5868 70.5595 49.0561 69.48C49.6193 69.1984 50.5111 69.0576 51.7313 69.0576C53.8434 69.0107 55.0402 68.9168 55.3217 68.776C55.5564 68.6352 55.7441 68.3536 55.885 67.9312C56.2135 66.9925 57.8327 60.6565 60.7426 48.9232C63.981 35.9696 65.6001 29.4459 65.6001 29.352C65.6001 29.2112 65.5532 29.1408 65.4593 29.1408C65.1778 29.0469 64.0748 28.9531 62.1506 28.8592C60.5079 28.8592 59.5927 28.6949 59.4049 28.3664C59.358 28.2256 59.4284 27.6859 59.6162 26.7472C59.8508 25.8555 60.062 25.3157 60.2498 25.128Z" fill="black"/>
</svg>
